Coordinates
version=1
nRows=9
nColumns=36
inDegrees=yes

Units are S.I. units (second, meters, Newtons, ...)
If the header above contains a line with 'inDegrees', this indicates whether rotational values are in degrees (yes) or radians (no).

endheader
time	pelvis_tilt	pelvis_list	pelvis_rotation	pelvis_tx	pelvis_ty	pelvis_tz	hip_flexion_r	hip_adduction_r	hip_rotation_r	knee_angle_r	knee_angle_r_beta	ankle_angle_r	subtalar_angle_r	mtp_angle_r	hip_flexion_l	hip_adduction_l	hip_rotation_l	knee_angle_l	knee_angle_l_beta	ankle_angle_l	subtalar_angle_l	mtp_angle_l	lumbar_extension	lumbar_bending	lumbar_rotation	arm_flex_r	arm_add_r	arm_rot_r	elbow_flex_r	pro_sup_r	arm_flex_l	arm_add_l	arm_rot_l	elbow_flex_l	pro_sup_l
      6.60000000	     -1.69461842	      6.65352201	      6.50743529	      0.73212132	      0.85552867	      0.07200822	     25.58721576	      4.09759534	      3.12628534	     50.89335186	      0.88825656	     27.50769158	    -26.85893766	     -7.49999987	     44.72760693	     -2.44256283	    -16.05207436	      4.39733417	      0.07674796	     -4.90330391	     -0.58878515	     -7.49999987	    -17.29199158	     -6.23481556	     -4.32907676	     44.18064386	     10.36943594	     71.24757967	    121.40420246	     95.12373739	     39.00294104	      9.06029291	     76.61263340	    122.28142385	     82.37995829
      6.61666670	     -1.18141561	      6.52575161	      6.01925921	      0.73832632	      0.86210315	      0.07524454	     23.51416604	      4.02044265	      2.83448033	     48.05209875	      0.83866734	     26.13817485	    -26.45328097	     -7.49999987	     43.64526648	     -2.97861516	    -16.47838706	      3.37573818	      0.05891775	     -5.32077292	      0.11654586	     -7.49999987	    -17.57720403	     -5.98969082	     -3.69328482	     44.21170992	     10.39902682	     70.94532175	    120.84053985	     95.31818915	     39.08881321	      9.12970954	     76.50624917	    122.12420814	     82.43739532
      6.63333330	     -1.63400101	      7.15431234	      6.15782747	      0.73779049	      0.86727655	      0.07586777	     23.24308670	      3.02208374	      2.57910409	     46.48151888	      0.81125555	     24.98813529	    -25.99028580	     -7.49999987	     43.99960654	     -2.45174409	    -16.05167397	      3.81453844	      0.06657626	     -5.74941031	      0.39673981	     -7.49999987	    -17.23765116	     -6.68254146	     -3.71747614	     43.67909605	     10.39672275	     70.84704249	    120.52338252	     95.38011681	     39.12944578	      8.93721562	     76.87346834	    122.43127289	     82.45905754
      6.65000000	     -1.67422030	      7.74706446	      6.17935266	      0.73833677	      0.87341728	      0.07545276	     22.19170878	      2.24100506	      2.58980962	     44.53222685	      0.77723398	     23.57530757	    -26.08432786	     -7.49999987	     43.79542065	     -2.07886788	    -15.76346591	      4.07662779	      0.07115058	     -6.15312001	     -0.29959475	     -7.49999987	    -17.09910878	     -7.34055379	     -3.76141671	     43.54741290	     10.35459466	     70.35530630	    120.22837813	     95.55995626	     39.26227770	      8.77151075	     77.19525640	    122.48962703	     82.40790458
      6.66666670	     -2.07372993	      7.95972609	      6.28002433	      0.72896289	      0.88240470	      0.07461321	     21.92920895	      1.76613645	      2.62660898	     42.43176002	      0.74057392	     22.14923624	    -26.07869002	     -7.49999987	     44.66480758	     -1.79340067	    -14.94643848	      4.86667943	      0.08493958	     -5.96374574	     -0.47603083	     -7.49999987	    -16.71572808	     -7.55915957	     -3.98874584	     43.25746714	     10.38164178	     70.29894406	    120.50663115	     94.66353436	     39.49904884	      8.86077343	     77.13780124	    122.66921815	     81.85221870
      6.68333330	     -2.06966812	      8.13220079	      6.22259752	      0.72996229	      0.89038223	      0.07461761	     20.92085494	      1.36717620	      2.49708475	     39.94706953	      0.69720789	     20.75901033	    -25.59138212	     -7.49999987	     44.59072013	     -1.68079934	    -14.75392480	      4.52361650	      0.07895200	     -6.34308623	     -0.12978344	     -7.49999987	    -16.55717245	     -7.64122441	     -3.98809156	     43.13045444	     10.39400353	     69.58550329	    120.64970871	     94.73370238	     39.74577250	      8.85956932	     76.80555069	    122.77762214	     81.79767663
      6.70000000	     -2.42180066	      8.60787126	      6.05406121	      0.73036151	      0.89812104	      0.06868926	     19.82443001	      0.23225799	      1.85742584	     36.99959936	      0.64576483	     19.19337977	    -24.75503569	     -7.49999987	     45.07573268	     -1.14024319	    -14.77208512	      4.81762558	      0.08408343	     -5.90855023	     -0.47300473	     -7.49999987	    -16.16568007	     -7.88739188	     -3.96144575	     43.00933350	     10.17691893	     69.26622691	    120.78416292	     94.81402142	     40.07871600	      9.22950375	     76.53299964	    122.69789657	     81.70356932
      6.71666670	     -2.29524797	      9.11742513	      5.72227876	      0.73053095	      0.90646005	      0.06909613	     17.88424143	     -0.70921653	      1.36319061	     33.59181352	      0.58628775	     17.86840179	    -23.51780048	     -7.49999987	     44.87289648	     -0.79749485	    -14.56159426	      4.81201661	      0.08398553	     -5.87556661	     -0.43088716	     -7.49999987	    -15.96788804	     -8.13918613	     -3.68314682	     43.04245445	      9.78946728	     68.84669303	    120.51688274	     94.87480154	     40.34238103	      9.36958262	     75.64650189	    122.23033623	     81.50316271
      6.73333330	     -2.46284042	      9.64085460	      5.52494854	      0.73027052	      0.91202334	      0.06962742	     16.67959082	     -1.72564205	      0.62677734	     30.56318900	      0.53342828	     16.37437158	    -22.50420808	     -7.49999987	     45.36477129	     -0.50795053	    -13.93648921	      5.58306079	      0.09744279	     -5.50789945	     -0.75781132	     -7.49999987	    -15.54890922	     -8.48233299	     -3.43458424	     43.02972002	      9.54716969	     68.67416162	    120.26203681	     94.96547221	     40.55642715	      9.56473481	     74.73509481	    121.89388603	     81.37414814
